{"title":"Turbo 2013 V2 HDCAM XViD UNiQUE ","uid":8964551,"size":1485793633,"categoryP":"video","categoryS":"movies","magnet":"?xt=urn:btih:98732f839bb40b9651ab8a5cad4e96e19b867131&amp;dn=Turbo+2013+V2+HDCAM+XViD+UNiQUE+&amp;tr=udp%3A%2F%2Ftracker.openbittorrent.com%3A80&amp;tr=udp%3A%2F%2Fopen.demonii.com%3A1337&amp;tr=udp%3A%2F%2Ftracker.coppersurfer.tk%3A6969&amp;tr=udp%3A%2F%2Fexodus.desync.com%3A6969","seeders":15,"leechers":2,"uploader":"srkfan","files":3,"time":1380186590,"description":"\n\nFormat: AVI\nFormat/Info: Audio Video Interleave\nFile size: 1.37 GiB\nDuration: 1h 40mn\nOverall bit rate: 1 956 Kbps\nWriting application: VirtualDubMod 1.5.10.2 (build 2540/release)\nWriting library: VirtualDubMod build 2540/release\n\nVideo\nID: 0\nFormat: MPEG-4 Visual\nFormat profile: Advanced Simple@L5\nFormat settings, BVOP: 2\nFormat settings, QPel: No\nFormat settings, GMC: No warppoints\nFormat settings, Matrix: Default (H.263)\nMuxing mode: Packed bitstream\nCodec ID: XVID\nCodec ID/Hint: XviD\nDuration: 1h 40mn\nBit rate: 1 823 Kbps\nWidth: 720 pixels\nHeight: 304 pixels\nDisplay aspect ratio: 2.35:1\nFrame rate: 29.970 fps\nColor space: YUV\nChroma subsampling: 4:2:0\nBit depth: 8 bits\nScan type: Progressive\nCompression mode: Lossy\nBits/(Pixel*Frame): 0.278\nStream size: 1.27 GiB (93%)\nWriting library: XviD 64\n\nAudio\nID: 1\nFormat: MPEG Audio\nFormat version: Version 1\nFormat profile: Layer 3\nCodec ID: 55\nCodec ID/Hint: MP3\nDuration: 1h 35mn\nBit rate mode: Constant\nBit rate: 128 Kbps\nChannel(s): 2 channels\nSampling rate: 48.0 KHz\nCompression mode: Lossy\nStream size: 87.5 MiB (6%)\nAlignment: Split accross interleaves\nInterleave, duration: 35 ms (1.05 video frame)\nInterleave, preload duration: 500 ms \n &lt;a href=&quot;\nhttp://www.imdb.com/title/tt1860353/&quot; rel=&quot;nofollow&quot; target=&quot;_NEW&quot;&gt;\nhttp://www.imdb.com/title/tt1860353/&lt;/a&gt;\n\nStoryline\n\nFrom the makers of MADAGASCAR and KUNG FU PANDA, TURBO is a high-velocity 3D comedy about a snail who dares to dream big - and fast. After a freak accident infuses him with the power of super-speed, Turbo kicks into overdrive and embarks on an extraordinary journey to achieve the seemingly impossible: competing in the world's fastest race, the Indianapolis 500. With the help of his tricked-out streetwise snail crew, this ultimate underdog puts his heart and shell on the line to prove that no dream is too big, and no dreamer too small\nSource Used SmY - Thanks :bow:\n\nGreets now going out to !\n\nJUSTiCE,KiSSMYACE and the rest can just KMA :lol:\n\nGone ahead and done another version using SmYs clean source this time no dumb 161 logos\n\nCant say did alot video was pure quality already\n &lt;a href=&quot;\nhttp://img5.imageshack.us/img5/5827/ol3o.png&quot; rel=&quot;nofollow&quot; target=&quot;_NEW&quot;&gt;\nhttp://img5.imageshack.us/img5/5827/ol3o.png&lt;/a&gt; &lt;a href=&quot;\nhttp://img842.imageshack.us/img842/9379/32lt.png&quot; rel=&quot;nofollow&quot; target=&quot;_NEW&quot;&gt;\nhttp://img842.imageshack.us/img842/9379/32lt.png&lt;/a&gt; &lt;a href=&quot;\nhttp://img534.imageshack.us/img534/6061/i27y.png&quot; rel=&quot;nofollow&quot; target=&quot;_NEW&quot;&gt;\nhttp://img534.imageshack.us/img534/6061/i27y.png&lt;/a&gt;","torrent":{"xt":"urn:btih:98732f839bb40b9651ab8a5cad4e96e19b867131","amp;dn":"Turbo+2013+V2+HDCAM+XViD+UNiQUE+","amp;tr":["udp%3A%2F%2Ftracker.openbittorrent.com%3A80","udp%3A%2F%2Fopen.demonii.com%3A1337","udp%3A%2F%2Ftracker.coppersurfer.tk%3A6969","udp%3A%2F%2Fexodus.desync.com%3A6969"],"infoHash":"98732f839bb40b9651ab8a5cad4e96e19b867131","infoHashBuffer":{"type":"Buffer","data":[152,115,47,131,155,180,11,150,81,171,138,92,173,78,150,225,155,134,113,49]},"announce":[],"urlList":[]}}